<svg width="31" height="31" viewBox="0 0 31 31" fill="none" xmlns="http://www.w3.org/2000/svg">
<path d="M28.52 12.3876V27.28C28.5181 27.9371 28.2561 28.5668 27.7915 29.0315C27.3268 29.4962 26.6971 29.7581 26.04 29.76H18.6V19.84H12.4V29.76H4.95998C4.30284 29.7581 3.67316 29.4962 3.20849 29.0315C2.74382 28.5668 2.48191 27.9371 2.47998 27.28V12.3876C2.48033 12.0057 2.56892 11.6291 2.73884 11.287C2.90877 10.945 3.15543 10.6469 3.45958 10.416L15.5 1.23999L27.5404 10.416C27.8445 10.6469 28.0912 10.945 28.2611 11.287C28.431 11.6291 28.5196 12.0057 28.52 12.3876Z" fill="#787486"/>
</svg>
