<svg width="31" height="33" viewBox="0 0 31 33" fill="none" xmlns="http://www.w3.org/2000/svg">
<path d="M30.8696 0.683313C30.8426 0.642139 30.8123 0.602769 30.7792 0.565501C30.7193 0.460344 30.6357 0.367983 30.5338 0.294532H30.4175C30.3161 0.23948 30.2077 0.195958 30.0946 0.164938C30.0216 0.158323 29.9481 0.158323 29.8751 0.164938L29.7071 0H10.3329C9.99032 0 9.66179 0.124124 9.41957 0.345065C9.17734 0.566007 9.04126 0.865668 9.04126 1.17813V8.24689C9.04126 8.55935 9.17734 8.85901 9.41957 9.07995C9.66179 9.30089 9.99032 9.42501 10.3329 9.42501C10.6754 9.42501 11.004 9.30089 11.2462 9.07995C11.4884 8.85901 11.6245 8.55935 11.6245 8.24689V2.35625H20.9112L16.4164 3.53438C16.1418 3.61001 15.9027 3.76685 15.7366 3.98016C15.5706 4.19348 15.4871 4.45113 15.4993 4.71251V27.0969H11.6245V23.5625C11.6245 23.2501 11.4884 22.9504 11.2462 22.7295C11.004 22.5085 10.6754 22.3844 10.3329 22.3844C9.99032 22.3844 9.66179 22.5085 9.41957 22.7295C9.17734 22.9504 9.04126 23.2501 9.04126 23.5625V28.275C9.04126 28.5875 9.17734 28.8872 9.41957 29.1081C9.66179 29.329 9.99032 29.4532 10.3329 29.4532H15.4993V31.8094C15.4993 31.9923 15.546 32.1727 15.6357 32.3363C15.7254 32.4999 15.8556 32.6422 16.016 32.7519C16.2396 32.9049 16.5115 32.9875 16.791 32.9875C16.9152 33.0041 17.0413 33.0041 17.1655 32.9875L30.0817 29.4532C30.3563 29.3775 30.5954 29.2207 30.7615 29.0074C30.9275 28.7941 31.011 28.5364 30.9988 28.275V1.17813C30.9957 1.00658 30.9516 0.837705 30.8696 0.683313ZM28.4155 27.4032L18.0826 30.2307V5.58432L28.4155 2.75682V27.4032Z" fill="#787486"/>
<path d="M9.95837 20.8646L13.8332 17.3302C13.9508 17.2182 14.043 17.0861 14.1045 16.9414C14.2336 16.6546 14.2336 16.3329 14.1045 16.0461C14.043 15.9015 13.9508 15.7693 13.8332 15.6573L9.95837 12.1229C9.71516 11.9011 9.38528 11.7764 9.04132 11.7764C8.69736 11.7764 8.36749 11.9011 8.12427 12.1229C7.88106 12.3448 7.74442 12.6456 7.74442 12.9594C7.74442 13.2731 7.88106 13.574 8.12427 13.7958L9.80338 15.3156H1.29162C0.949059 15.3156 0.620532 15.4398 0.378306 15.6607C0.136081 15.8816 0 16.1813 0 16.4938C0 16.8062 0.136081 17.1059 0.378306 17.3268C0.620532 17.5478 0.949059 17.6719 1.29162 17.6719H9.80338L8.12427 19.1917C8.00321 19.3012 7.90712 19.4315 7.84155 19.5751C7.77598 19.7186 7.74222 19.8726 7.74222 20.0281C7.74222 20.1837 7.77598 20.3376 7.84155 20.4812C7.90712 20.6248 8.00321 20.7551 8.12427 20.8646C8.24435 20.975 8.3872 21.0627 8.5446 21.1225C8.70199 21.1823 8.87081 21.2131 9.04132 21.2131C9.21183 21.2131 9.38065 21.1823 9.53805 21.1225C9.69545 21.0627 9.8383 20.975 9.95837 20.8646Z" fill="#787486"/>
<path d="M20.6659 17.6719C21.0084 17.6719 21.337 17.5478 21.5792 17.3269C21.8214 17.1059 21.9575 16.8063 21.9575 16.4938C21.9575 16.1813 21.8214 15.8817 21.5792 15.6607C21.337 15.4398 21.0084 15.3157 20.6659 15.3157C20.3233 15.3157 19.9948 15.4398 19.7526 15.6607C19.5103 15.8817 19.3743 16.1813 19.3743 16.4938C19.3743 16.8063 19.5103 17.1059 19.7526 17.3269C19.9948 17.5478 20.3233 17.6719 20.6659 17.6719Z" fill="#787486"/>
</svg>
