<svg width="35" height="33" viewBox="0 0 35 33" fill="none" xmlns="http://www.w3.org/2000/svg">
<path d="M13.3824 14.6563C13.2427 14.643 13.0751 14.643 12.9215 14.6563C9.59703 14.5497 6.95703 11.9527 6.95703 8.75644C6.95703 5.49354 9.72275 2.84326 13.1589 2.84326C16.5812 2.84326 19.3608 5.49354 19.3608 8.75644C19.3469 11.9527 16.7069 14.5497 13.3824 14.6563Z" stroke="#787486" stroke-width="1.5" stroke-linecap="round" stroke-linejoin="round"/>
<path d="M23.5092 5.50684C26.2191 5.50684 28.3981 7.59776 28.3981 10.1681C28.3981 12.6852 26.3029 14.7362 23.6908 14.8294C23.5791 14.8161 23.4534 14.8161 23.3276 14.8294" stroke="#787486" stroke-width="1.5" stroke-linecap="round" stroke-linejoin="round"/>
<path d="M6.39828 19.5707C3.01796 21.7282 3.01796 25.2441 6.39828 27.3883C10.2395 29.8388 16.5392 29.8388 20.3805 27.3883C23.7608 25.2308 23.7608 21.7149 20.3805 19.5707C16.5532 17.1335 10.2535 17.1335 6.39828 19.5707Z" stroke="#787486" stroke-width="1.5" stroke-linecap="round" stroke-linejoin="round"/>
<path d="M26.2051 26.8156C27.2108 26.6158 28.1606 26.2296 28.9429 25.6569C31.1219 24.0987 31.1219 21.5284 28.9429 19.9702C28.1746 19.4108 27.2387 19.0379 26.247 18.8248" stroke="#787486" stroke-width="1.5" stroke-linecap="round" stroke-linejoin="round"/>
</svg>
